<svg xmlns="http://www.w3.org/2000/svg" viewBox="0 0 360 520" role="img" aria-label="Temporary Chris cutout placeholder">
  <defs>
    <radialGradient id="halo" cx="50%" cy="20%" r="72%">
      <stop offset="0%" stop-color="#f8dc7b" stop-opacity="0.7"/>
      <stop offset="55%" stop-color="#b98722" stop-opacity="0.18"/>
      <stop offset="100%" stop-color="#000000" stop-opacity="0"/>
    </radialGradient>
    <linearGradient id="suit" x1="0" x2="1" y1="0" y2="1">
      <stop offset="0%" stop-color="#23272d"/>
      <stop offset="100%" stop-color="#07080a"/>
    </linearGradient>
    <linearGradient id="gold" x1="0" x2="1" y1="0" y2="1">
      <stop offset="0%" stop-color="#fff0a2"/>
      <stop offset="36%" stop-color="#d2a33a"/>
      <stop offset="70%" stop-color="#fff2b8"/>
      <stop offset="100%" stop-color="#9a6a18"/>
    </linearGradient>
  </defs>
  <rect width="360" height="520" fill="none"/>
  <ellipse cx="180" cy="210" rx="165" ry="210" fill="url(#halo)"/>
  <path d="M82 504c12-118 39-188 98-188s86 70 98 188H82z" fill="url(#suit)" stroke="#e6c05d" stroke-opacity="0.75" stroke-width="4"/>
  <path d="M145 334l35 72 35-72" fill="#f7f1e6" opacity="0.9"/>
  <circle cx="180" cy="198" r="78" fill="#caa27d" stroke="#efd18a" stroke-width="4"/>
  <path d="M113 185c10-62 45-96 93-78 29 11 45 38 45 79-48-30-91-36-138-1z" fill="#17110d"/>
  <path d="M121 205c31 34 84 36 118 0" fill="none" stroke="#3b2419" stroke-width="8" stroke-linecap="round" opacity="0.45"/>
  <text x="180" y="464" text-anchor="middle" font-family="Georgia, 'Times New Roman', serif" font-size="74" font-style="italic" font-weight="700" fill="url(#gold)" stroke="#1b1103" stroke-width="2">CL</text>
</svg>
