<svg xmlns="http://www.w3.org/2000/svg" viewBox="0 0 64 64" role="img" aria-label="CL logo">
  <rect width="64" height="64" rx="8" fill="#071113"/>
  <rect x="5.5" y="5.5" width="53" height="53" rx="5" fill="none" stroke="#92f4d6" stroke-opacity="0.78" stroke-width="3"/>
  <path d="M29.2 41.8c-2.1 2-4.9 3.1-8.2 3.1-7 0-11.8-5.1-11.8-12.8s4.9-12.8 11.9-12.8c3.2 0 5.8 1 7.9 2.9l-3.1 4.2c-1.2-1.2-2.7-1.8-4.6-1.8-3.8 0-6.1 3-6.1 7.5s2.4 7.5 6.1 7.5c2 0 3.6-0.7 4.9-2L29.2 41.8z" fill="#bfffee"/>
  <path d="M33.1 19.8h6.1v19h13.1v5.5H33.1V19.8z" fill="#92f4d6"/>
  <path d="M12 53h40" stroke="#e3c64b" stroke-opacity="0.68" stroke-width="2.5" stroke-linecap="square"/>
</svg>
